<?xml version="1.0" encoding="UTF-8"?>
<svg id="Layer_2" data-name="Layer 2" xmlns="http://www.w3.org/2000/svg" viewBox="0 0 254.24 265.38">
  <defs>
    <style>
      .cls-1 {
        fill: #ff7300;
      }
    </style>
  </defs>
  <g id="Layer_1-2" data-name="Layer 1">
    <g>
      <path class="cls-1" d="M251.4,.09L164.19,0c-6,0-11.72,2.53-15.74,6.98-18.78,20.8-73,80.83-73,80.83L10.01,154.48c-6.42,6.54-10.01,15.33-10.01,24.49v83.56c0,2.56,3.12,3.81,4.88,1.96L253.44,4.89c1.73-1.8,.45-4.8-2.05-4.8Z"/>
      <path class="cls-1" d="M151.03,161c-5.76-5.53-14.92-5.35-20.44,.42l-28.16,29.37c-5.53,5.77-5.33,14.92,.44,20.44l41.49,40.6c8.88,8.49,20.69,13.23,32.97,13.23h73.98c2.55,0,3.81-3.11,1.97-4.88l-102.26-99.18Z"/>
      <path class="cls-1" d="M12.06,126.78l56.52-57.59,1.25-1.32c3.73-3.92,5.8-9.12,5.8-14.53V3.01c0-1.57-1.27-2.84-2.84-2.84H3.02C1.46,.18,.19,1.45,.19,3.01V121.93c0,6.2,7.53,9.28,11.87,4.85Z"/>
    </g>
  </g>
</svg>