<?xml version="1.0" encoding="UTF-8"?>
<svg id="Layer_2" data-name="Layer 2" xmlns="http://www.w3.org/2000/svg" viewBox="0 0 374.42 385.53">
  <defs>
    <style>
      .cls-1 {
        fill: #231f20;
      }

      .cls-2 {
        fill: #010101;
      }
    </style>
  </defs>
  <g id="Layer_1-2" data-name="Layer 1">
    <path class="cls-1" d="M364.17,351.07L234.3,185.68c56.85-22.93,115.58-67.45,125.03-161.22h-48.86c-14.37,101.09-82.87,129.75-133.89,141.3l-17.08,21.36c-3.13,3.91-3.13,9.36-.01,13.26l4.2,5.25c6.58-1.21,13.67-2.67,20.99-4.38l117.72,149.82c1.94,2.91,4.38,3.89,7.78,3.89h52.05c3.4,0,3.89-.98,1.94-3.89Z"/>
    <path class="cls-2" d="M374.37,0h.04V7.23c0,3.99-5.64,7.23-12.6,7.23H12.6C5.64,14.45,0,11.22,0,7.23H0C0,3.24,5.64,0,12.6,0H374.37Z"/>
    <path class="cls-2" d="M52.19,312.89l-12.14,9.1c-1.82,1.36-2.89,3.51-2.89,5.78v22.62c0,3.99,3.24,7.23,7.23,7.23h125.93c3.99,0,7.23-3.24,7.23-7.23v-25.76l-3.93-6.94-34.68-20.8c-1.02-.61-1.87-1.46-2.48-2.48l-22.91-38.19c-1.18-1.99-3.28-3.3-5.59-3.5-2.27-.17-4.58,.74-6.08,2.51l-48.54,56.58c-.34,.4-.73,.76-1.15,1.08Z"/>
    <path class="cls-2" d="M110.25,234.08c.84-.74,1.23-1.82,1.23-2.91s-.39-2.14-1.23-2.98c-1.55-1.5-4.28-1.5-5.86,.07-.74,.74-1.16,1.82-1.16,2.88s.39,2.14,1.23,2.91c.74,.81,1.82,1.23,2.91,1.23,1.06,.02,2.14-.39,2.88-1.21h0Z"/>
    <path class="cls-2" d="M140.39,171.83c-10.32,12.9-10.32,30.93,0,43.83l30.14,37.7c13.17,16.45,20.41,37.11,20.41,58.16v38.89c0,3.99,3.24,7.23,7.23,7.23h0c3.99,0,7.23-3.24,7.23-7.23v-38.89c0-24.33-8.37-48.19-23.57-67.2l-30.14-37.7c-6.08-7.58-6.08-18.17,0-25.76l30.14-37.7c15.19-19.01,23.57-42.87,23.57-67.2V35.82c0-3.99-3.24-7.23-7.23-7.23h0c-3.99,0-7.23,3.24-7.23,7.23v40.15c0,21.05-7.24,41.71-20.41,58.19l-30.14,37.67Z"/>
    <path class="cls-2" d="M84.76,163.58c7.72,9.63,11.14,21.31,10.5,32.85-.1,1.85,.5,3.68,1.71,5.09l3.2,3.75c-.02,.17-.1,.32-.1,.49,0,1.97,.81,3.79,2.14,5.12,.79,.81,1.82,1.33,2.93,1.7-.25,.15-.52,.25-.69,.47-.84,.74-1.23,1.82-1.23,2.91s.39,2.14,1.23,2.98c.74,.74,1.82,1.16,2.91,1.16s2.07-.39,2.98-1.23c.74-.81,1.16-1.82,1.16-2.88s-.39-2.14-1.23-2.91c-.2-.2-.47-.32-.71-.44,1.08-.37,2.12-.89,2.86-1.7,1.43-1.33,2.17-3.13,2.17-5.12,0-.05-.02-.12-.02-.17l2.83-2.83c1.49-1.49,2.23-3.55,2.09-5.65-.8-11.74,2.63-23.69,10.5-33.5l30.14-37.7c4.25-5.31,7.78-11.13,10.52-17.29,1.52-3.41,.1-7.41-3.17-9.2l-26.14-14.29c-2.49-1.38-5.54-1.16-7.81,.57l-18.31,13.76c-.66,.49-1.4,.87-2.18,1.12l-20.67,6.47c-2.31,.72-4.84,.24-6.72-1.29l-14.27-11.61c-1.95-1.6-4.6-2.07-6.99-1.21l-16.07,5.74c-3.97,1.42-5.88,5.91-4.18,9.76,2.74,6.22,6.28,12.11,10.57,17.48l30.07,37.63Z"/>
    <path class="cls-2" d="M32.85,244.31c-15.19,19.01-23.57,42.87-23.57,67.2v38.89c0,3.99,3.24,7.23,7.23,7.23h0c3.99,0,7.23-3.24,7.23-7.23v-38.89c0-21.08,7.24-41.71,20.41-58.16l30.14-37.7c10.34-12.9,10.34-30.9,0-43.83l-30.14-37.7c-13.15-16.45-20.41-37.11-20.41-58.19V35.77c0-3.99-3.24-7.23-7.23-7.23h0c-3.99,0-7.23,3.24-7.23,7.23v40.15c0,24.33,8.37,48.19,23.57,67.2l30.14,37.7c6.08,7.58,6.08,18.17,0,25.76l-30.14,37.73Z"/>
    <path class="cls-2" d="M374.37,371.07H12.6c-6.96,0-12.6,3.24-12.6,7.23H0c0,3.99,5.64,7.23,12.6,7.23H361.81c6.96,0,12.6-3.24,12.6-7.23v-7.23h-.04Z"/>
  </g>
</svg>